<svg width="105" height="105" viewBox="0 0 105 105" fill="none" xmlns="http://www.w3.org/2000/svg">
<g id="1-01 1" clip-path="url(#clip0_0_1)">

<path id="Vector" d="M32.14 80.3403L41.94 75.7503L51.93 79.9203L61.91 75.7503L72.38 80.3403L57.58 90.2503L51.93 82.1503L45.83 90.2503L32.14 80.3403Z" fill="#E0E0E0"/>
<path id="Vector_2" d="M62.01 66.7903H41.97V80.2903H62.01V66.7903Z" fill="#FCB18E"/>
<g id="Vector_3" style="mix-blend-mode:multiply">
<path d="M46.83 76.5603C49.8794 77.8014 53.1287 78.4791 56.42 78.5603C58.2962 78.5472 60.1673 78.3631 62.01 78.0103V66.7903H42.01V73.7903C43.4531 74.9729 45.0817 75.9089 46.83 76.5603V76.5603Z" fill="#E5E5E5"/>
</g>
<path id="Vector_4" d="M74.11 41.7803C74.18 41.2903 75.04 40.4903 75.42 40.2203C75.5914 40.1039 75.7891 40.032 75.9952 40.0109C76.2013 39.9899 76.4094 40.0204 76.6008 40.0997C76.7922 40.1791 76.9608 40.3047 77.0916 40.4654C77.2224 40.6261 77.3112 40.8168 77.35 41.0203C77.5287 41.7478 77.6325 42.4917 77.66 43.2403C77.8083 45.0002 77.4619 46.7666 76.66 48.3403C76.095 49.4098 75.2565 50.3105 74.23 50.9503C74.1022 51.0257 73.9573 51.0671 73.8089 51.0707C73.6606 51.0743 73.5138 51.0398 73.3825 50.9707C73.2513 50.9015 73.1399 50.8 73.0589 50.6756C72.9779 50.5513 72.9301 50.4083 72.92 50.2603L74.11 41.7803Z" fill="#FCB18E"/>
<path id="Vector_5" d="M73.93 42.8503C73.93 42.4903 74.6 41.9203 74.87 41.7303C74.9922 41.6461 75.1334 41.5938 75.281 41.5781C75.4285 41.5624 75.5776 41.5839 75.7148 41.6405C75.8519 41.6972 75.9727 41.7872 76.0662 41.9024C76.1597 42.0176 76.2228 42.1544 76.25 42.3003C76.3801 42.8206 76.4505 43.354 76.46 43.8903C76.5701 45.1483 76.3277 46.4122 75.76 47.5403C75.3529 48.302 74.7529 48.9434 74.02 49.4003C73.9289 49.4555 73.8251 49.4863 73.7186 49.4897C73.6121 49.4931 73.5066 49.4691 73.4121 49.4198C73.3176 49.3706 73.2374 49.2978 73.1793 49.2086C73.1211 49.1193 73.0869 49.0166 73.08 48.9103L73.93 42.8503Z" fill="#DB9A7C"/>
<path id="Vector_6" d="M29.37 41.7803C29.3 41.2903 28.44 40.4903 28.06 40.2203C27.8886 40.1039 27.6909 40.032 27.4848 40.0109C27.2787 39.9899 27.0706 40.0204 26.8792 40.0997C26.6878 40.1791 26.5192 40.3047 26.3884 40.4654C26.2576 40.6261 26.1688 40.8168 26.13 41.0203C25.9481 41.7466 25.8508 42.4916 25.84 43.2403C25.6912 45.0003 26.0376 46.7668 26.84 48.3403C27.4081 49.4076 28.2459 50.3075 29.27 50.9503C29.3986 51.0251 29.544 51.0662 29.6927 51.0696C29.8415 51.073 29.9886 51.0386 30.1205 50.9697C30.2523 50.9008 30.3646 50.7996 30.4467 50.6755C30.5288 50.5514 30.5781 50.4086 30.59 50.2603L29.37 41.7803Z" fill="#FCB18E"/>
<path id="Vector_7" d="M29.54 42.8503C29.49 42.4903 28.88 41.9203 28.61 41.7303C28.4878 41.6461 28.3466 41.5938 28.199 41.5781C28.0515 41.5624 27.9023 41.5839 27.7652 41.6405C27.6281 41.6972 27.5073 41.7872 27.4138 41.9024C27.3203 42.0176 27.2571 42.1544 27.23 42.3003C27.095 42.8197 27.0245 43.3537 27.02 43.8903C26.9014 45.1477 27.1406 46.413 27.71 47.5403C28.1197 48.3001 28.7192 48.9409 29.45 49.4003C29.5411 49.4555 29.6449 49.4863 29.7514 49.4897C29.8579 49.4931 29.9634 49.4691 30.0579 49.4198C30.1524 49.3706 30.2326 49.2978 30.2907 49.2086C30.3489 49.1193 30.3831 49.0166 30.39 48.9103L29.54 42.8503Z" fill="#DB9A7C"/>
<path id="Vector_8" d="M74.78 43.3803C74.938 48.9661 73.6607 54.499 71.07 59.4503C68.614 63.5717 65.2737 67.0965 61.29 69.7703C58.19 71.9703 54.85 74.5203 50.92 74.2103C46.83 73.8903 43.66 70.5003 40.66 67.8603C36.3762 64.1337 33.0786 59.4072 31.06 54.1003C29.8099 50.6656 29.1834 47.0352 29.21 43.3803C29.21 25.3103 39.41 13.9503 52 13.9503C64.59 13.9503 74.78 25.3103 74.78 43.3803Z" fill="#FCB18E"/>
<path id="Vector_9" d="M86.99 86.4003L61.99 79.8703H41.99L16.99 86.4003C13.4325 87.9371 10.358 90.4094 8.09352 93.5543C5.82907 96.6992 4.45934 100.399 4.13 104.26H99.85C99.5207 100.399 98.1509 96.6992 95.8865 93.5543C93.622 90.4094 90.5476 87.9371 86.99 86.4003V86.4003Z" fill="#FCB18E"/>
<path id="Vector_10" d="M86.99 86.4003L61.99 79.8703H41.99L16.99 86.4003C13.4325 87.9371 10.358 90.4094 8.09352 93.5543C5.82907 96.6992 4.45934 100.399 4.13 104.26H99.85C99.5207 100.399 98.1509 96.6992 95.8865 93.5543C93.622 90.4094 90.5476 87.9371 86.99 86.4003V86.4003Z" fill="white"/>
<path id="Vector_11" d="M86.99 86.4003L68.51 81.5603L51.99 104.26L35.66 81.5203L17 86.4003C13.4406 87.9357 10.364 90.4074 8.09775 93.5523C5.83147 96.6973 4.46025 100.398 4.13 104.26H99.85C99.5207 100.399 98.1509 96.6992 95.8865 93.5543C93.622 90.4094 90.5476 87.9371 86.99 86.4003V86.4003Z" fill="#031114"/>
<path id="Vector_12" d="M49.8 92.8903L45.2 104.26H58.27L53.79 92.8903H49.8Z" fill="#FEA621"/>
<path id="Vector_13" d="M51.69 80.0903L45.83 87.9503L49.9 92.9203L51.9 92.8903L53.89 92.8603L57.8 87.7503L51.69 80.0903Z" fill="#FEA621"/>
<g id="Vector_14" style="mix-blend-mode:multiply">
<path d="M55.66 86.9203C54.9 88.4003 53.51 90.0903 51.66 89.6703C51.2185 89.5734 50.8022 89.3854 50.4374 89.1185C50.0727 88.8515 49.7677 88.5115 49.5418 88.12C49.316 87.7285 49.1743 87.2942 49.1257 86.8448C49.0772 86.3955 49.1229 85.941 49.26 85.5103C49.7 83.6803 50.88 82.1503 51.54 80.4103L45.83 87.9503L49.91 92.9503L53.91 92.8903L57.82 87.7803L56.15 85.6503C55.99 86.1003 55.81 86.5203 55.66 86.9203Z" fill="#CCCCCC"/>
</g>
<path id="Vector_15" d="M51.99 104.26L35.66 81.5203L22.6 84.9303L39.29 96.6803L35 98.5703L42.72 104.26H51.99Z" fill="#000C0F"/>
<path id="Vector_16" d="M51.99 104.29L68.33 81.5503L81.39 84.9603L64.7 96.7103L68.99 98.6103L61.27 104.29H51.99Z" fill="#000C0F"/>
<path class="hair" d="M75.44 41.5C75.44 41.5 71.73 58.88 59.25 63.88C59.25 63.88 57.7 67.74 52.53 67.74C47.36 67.74 45.8 63.88 45.8 63.88C33.32 58.88 29.61 41.5 29.61 41.5C28.52 61 42.52 69.41 42.52 69.41C50.15 75.65 52.52 74.58 52.52 74.58C52.52 74.58 54.9 75.65 62.52 69.41C62.53 69.41 76.39 61.52 75.44 41.5Z" fill="#26120B"/>
<path class="hair" d="M52.33 58.08C52.33 58.08 47.18 56.5 45.8 63.88C44.3977 63.5343 43.1026 62.8473 42.03 61.88C42.03 61.88 45.49 53.2 52.33 58.08Z" fill="#26120B"/>
<path class="hair" d="M52.77 58.08C52.77 58.08 57.93 56.5 59.31 63.88C60.7114 63.532 62.006 62.8452 63.08 61.88C63.08 61.88 59.62 53.2 52.77 58.08Z" fill="#26120B"/>
<path class="hair" d="M29.61 41.5C29.61 41.5 33 21.16 43.38 23.16C43.38 23.16 52.81 29.02 60.67 23.02C60.67 23.02 70.21 22.7 75.44 41.5C75.44 41.5 76.75 21.44 62.35 14.3C62.35 14.3 49.03 8.15 37.63 17.3C34.3085 20.2913 31.8225 24.0953 30.4163 28.3383C29.0102 32.5813 28.7323 37.1171 29.61 41.5V41.5Z" fill="#26120B"/>
</g>
<defs>
<filter id="filter0_d_0_1" x="-4.35657" y="-0.356567" width="112.684" height="112.684" filterUnits="userSpaceOnUse" color-interpolation-filters="sRGB">
<feFlood flood-opacity="0" result="BackgroundImageFix"/>
<feColorMatrix in="SourceAlpha" type="matrix" values="0 0 0 0 0 0 0 0 0 0 0 0 0 0 0 0 0 0 127 0" result="hardAlpha"/>
<feOffset dy="4"/>
<feGaussianBlur stdDeviation="2"/>
<feComposite in2="hardAlpha" operator="out"/>
<feColorMatrix type="matrix" values="0 0 0 0 0 0 0 0 0 0 0 0 0 0 0 0 0 0 0.25 0"/>
<feBlend mode="normal" in2="BackgroundImageFix" result="effect1_dropShadow_0_1"/>
<feBlend mode="normal" in="SourceGraphic" in2="effect1_dropShadow_0_1" result="shape"/>
</filter>
<clipPath id="clip0_0_1">
<rect width="104.66" height="104.66" fill="white"/>
</clipPath>
</defs>
</svg>
