<svg width="105" height="105" viewBox="0 0 105 105" fill="none" xmlns="http://www.w3.org/2000/svg">
<g id="2-01 1" clip-path="url(#clip0_0_1)">
<g id="Group">
<g id="Capa 1">
<g id="Group_2">
<path id="Vector" d="M28.38 47.93C28.09 48.36 27.19 84.75 33.59 92.2H69.78C69.78 92.2 79.67 64.26 72.93 47.93H28.17" fill="#080402"/>
<path id="Vector_2" d="M62.93 67.93H42.89V81.43H62.93V67.93Z" fill="#FCB18E"/>
<g id="Vector_3" style="mix-blend-mode:multiply">
<path d="M47.7501 77.7C50.7945 78.946 54.0414 79.6238 57.3301 79.7C59.209 79.6853 61.0829 79.5046 62.9301 79.16V67.93H42.9301V74.93C44.3714 76.1151 46.0005 77.0513 47.7501 77.7V77.7Z" fill="#E5E5E5"/>
</g>
<path id="Vector_4" d="M74.6 42.53C74.67 42.03 75.52 41.22 75.88 40.95C76.0496 40.8324 76.2462 40.7598 76.4514 40.7388C76.6567 40.7179 76.8639 40.7493 77.0537 40.8302C77.2435 40.9112 77.4097 41.0389 77.5367 41.2015C77.6638 41.3641 77.7475 41.5563 77.78 41.76C77.9543 42.4943 78.0481 43.2454 78.06 44C78.2036 45.7823 77.8578 47.5699 77.06 49.17C76.5086 50.2386 75.6884 51.145 74.68 51.8C74.553 51.876 74.4085 51.9179 74.2606 51.9216C74.1126 51.9254 73.9662 51.8909 73.8355 51.8215C73.7047 51.7522 73.5941 51.6502 73.5144 51.5256C73.4346 51.4009 73.3883 51.2578 73.38 51.11L74.6 42.53Z" fill="#FCB18E"/>
<path id="Vector_5" d="M74.43 43.6C74.43 43.25 75.08 42.67 75.35 42.47C75.471 42.3873 75.611 42.3365 75.7569 42.3223C75.9027 42.3081 76.0498 42.331 76.1845 42.3889C76.3192 42.4467 76.437 42.5377 76.5272 42.6532C76.6173 42.7688 76.6768 42.9053 76.7 43.05C76.8301 43.5771 76.9005 44.1172 76.91 44.66C77.0172 45.9319 76.7825 47.2094 76.23 48.36C75.8289 49.1217 75.2404 49.7687 74.52 50.24C74.4292 50.2937 74.3261 50.323 74.2206 50.3249C74.1151 50.3268 74.0109 50.3013 73.9182 50.2509C73.8256 50.2006 73.7475 50.127 73.6917 50.0375C73.636 49.9479 73.6044 49.8454 73.6 49.74L74.43 43.6Z" fill="#DB9A7C"/>
<path id="Vector_6" d="M30.71 42.53C30.64 42.03 29.8 41.22 29.43 40.95C28.6 40.34 27.78 40.95 27.53 41.76C27.3557 42.4943 27.2619 43.2454 27.25 44C27.091 45.7777 27.4194 47.565 28.2 49.17C28.7522 50.2411 29.5765 51.1482 30.59 51.8C30.7162 51.8766 30.8602 51.919 31.0078 51.9229C31.1554 51.9269 31.3015 51.8924 31.4317 51.8228C31.5619 51.7531 31.6717 51.6508 31.7503 51.5258C31.8289 51.4008 31.8736 51.2575 31.88 51.11L30.71 42.53Z" fill="#FCB18E"/>
<path id="Vector_7" d="M30.88 43.6C30.83 43.25 30.23 42.67 29.96 42.47C29.839 42.3873 29.6991 42.3365 29.5532 42.3223C29.4073 42.3081 29.2602 42.331 29.1255 42.3889C28.9909 42.4467 28.873 42.5377 28.7829 42.6532C28.6928 42.7688 28.6333 42.9053 28.61 43.05C28.48 43.5771 28.4095 44.1172 28.4 44.66C28.2915 45.9331 28.5299 47.2117 29.09 48.36C29.4858 49.1223 30.0713 49.7698 30.79 50.24C30.8816 50.2931 30.9852 50.3219 31.0911 50.3236C31.1969 50.3253 31.3014 50.2999 31.3947 50.2498C31.4879 50.1997 31.5668 50.1265 31.6237 50.0373C31.6807 49.948 31.7138 49.8457 31.72 49.74L30.88 43.6Z" fill="#DB9A7C"/>
<path id="Vector_8" d="M75.26 44.14C75.26 49.8 74.26 55.52 71.62 60.41C69.2255 64.5618 65.9399 68.1309 62 70.86C58.95 73.08 55.68 75.67 51.83 75.36C47.83 75.02 44.67 71.6 41.74 68.92C37.5314 65.1108 34.3152 60.3328 32.37 55C31.1469 51.511 30.5346 47.8372 30.56 44.14C30.56 25.85 40.56 14.35 52.91 14.35C65.26 14.35 75.26 25.85 75.26 44.14Z" fill="#FCB18E"/>
<path id="Vector_9" d="M83.4 87.54L61.64 81H44.18L22.42 87.54C22.42 87.54 12.33 91.83 11.21 105.4H94.61C93.49 91.83 83.4 87.54 83.4 87.54Z" fill="#FCB18E"/>
<path class="hair" d="M83.4 87.54L71.4 83.93L52.91 102.37L34.4 84L22.4 87.59C22.4 87.59 12.33 91.83 11.21 105.4H94.61C93.49 91.83 83.4 87.54 83.4 87.54Z" fill="#F72C2F"/>
<path class="hair" d="M37.7401 21.61C37.7401 21.61 48.5101 38.68 75.1901 41.61C75.1901 41.61 80.1901 22.16 61.4701 12.7C61.4701 12.68 47.1101 6.75002 37.7401 21.61Z" fill="#26120B"/>
<path class="hair" d="M40.5 25.06C40.5 25.06 33.5 29.56 30.5 42.11C30.5 42.11 27.27 18.46 44 15.51L40.5 25.06Z" fill="#26120B"/>
<path class="hair" d="M67.78 39.62C67.78 39.62 74.94 85.18 63.62 98.08C63.62 98.08 78.09 95.93 78.81 76.01C78.81 76.01 81.39 35.32 71.59 21.28L67.78 39.62Z" fill="#26120B"/>
<path class="hair" d="M37.16 98.08C37.16 98.08 20.49 96.08 25.08 44.86C25.08 44.86 26.23 16.41 42.89 15.75L41.89 26.55C41.89 26.55 32.31 29.4 33.55 51.92C33.59 51.92 32.61 88.19 37.16 98.08Z" fill="#26120B"/>
</g>
</g>
</g>
</g>
<defs>
<clipPath id="clip0_0_1">
<rect width="104.66" height="104.66" fill="white"/>
</clipPath>
</defs>
</svg>
