<svg width="105" height="105" viewBox="0 0 105 105" fill="none" xmlns="http://www.w3.org/2000/svg">
<g id="3-01 1" clip-path="url(#clip0_0_1)">
<g id="Group">
<g id="Capa 1">
<g id="Group_2">
<path id="Vector" d="M64.12 68.44H44.08V81.94H64.12V68.44Z" fill="#FCB18E"/>
<g id="Vector_2" style="mix-blend-mode:multiply">
<path d="M49 78.21C52.048 79.4365 55.295 80.094 58.58 80.15C60.4594 80.1448 62.3342 79.964 64.18 79.61V68.44H44.18V75.44C45.6222 76.6238 47.251 77.5599 49 78.21V78.21Z" fill="#E5E5E5"/>
</g>
<path id="Vector_3" d="M75.8 43C75.87 42.5 76.71 41.69 77.08 41.42C77.9 40.81 78.73 41.42 78.97 42.23C79.151 42.9633 79.2483 43.7148 79.26 44.47C79.3946 46.2517 79.0493 48.037 78.26 49.64C77.7043 50.7113 76.8809 51.6208 75.87 52.28C75.7431 52.3569 75.5982 52.3992 75.4498 52.4028C75.3014 52.4063 75.1547 52.3709 75.0242 52.3001C74.8937 52.2293 74.7841 52.1256 74.7061 51.9992C74.6282 51.8729 74.5847 51.7284 74.58 51.58L75.8 43Z" fill="#FCB18E"/>
<path id="Vector_4" d="M75.63 44.11C75.68 43.75 76.28 43.17 76.54 42.98C76.6611 42.8949 76.802 42.8421 76.9492 42.8267C77.0964 42.8112 77.2452 42.8336 77.3813 42.8917C77.5175 42.9497 77.6366 43.0416 77.7274 43.1585C77.8181 43.2755 77.8775 43.4137 77.9 43.56C78.0274 44.084 78.0945 44.6208 78.1 45.16C78.2121 46.4321 77.9771 47.7109 77.42 48.86C77.0228 49.6271 76.4337 50.2783 75.71 50.75C75.6192 50.8037 75.516 50.8329 75.4105 50.8348C75.305 50.8368 75.2009 50.8113 75.1082 50.7609C75.0155 50.7105 74.9374 50.637 74.8817 50.5474C74.8259 50.4579 74.7943 50.3554 74.79 50.25L75.63 44.11Z" fill="#DB9A7C"/>
<path id="Vector_5" d="M31.9 43C31.83 42.5 30.99 41.69 30.62 41.42C29.8 40.81 28.97 41.42 28.73 42.23C28.549 42.9633 28.4518 43.7148 28.44 44.47C28.3 46.252 28.6456 48.0387 29.44 49.64C29.993 50.7101 30.8127 51.6194 31.82 52.28C31.9469 52.3569 32.0918 52.3992 32.2402 52.4028C32.3886 52.4063 32.5354 52.3709 32.6658 52.3001C32.7963 52.2293 32.9059 52.1256 32.9839 51.9992C33.0618 51.8729 33.1053 51.7284 33.11 51.58L31.9 43Z" fill="#FCB18E"/>
<path id="Vector_6" d="M32.07 44.11C32.07 43.75 31.42 43.17 31.16 42.98C30.57 42.54 29.98 42.98 29.8 43.56C29.6726 44.084 29.6055 44.6208 29.6 45.16C29.4878 46.4322 29.7228 47.7109 30.28 48.86C30.6799 49.6284 31.2726 50.2796 32 50.75C32.0908 50.8037 32.194 50.833 32.2994 50.8349C32.4049 50.8368 32.5091 50.8113 32.6018 50.7609C32.6945 50.7105 32.7725 50.637 32.8283 50.5474C32.884 50.4579 32.9156 50.3554 32.92 50.25L32.07 44.11Z" fill="#DB9A7C"/>
<path id="Vector_7" d="M76.46 44.65C76.6127 50.2922 75.3583 55.8837 72.81 60.92C70.4244 65.0689 67.1492 68.6377 63.22 71.37C60.22 73.59 56.91 76.18 53.05 75.86C49 75.53 45.9 72.1 43 69.43C38.7819 65.619 35.5556 60.8378 33.6 55.5C32.3769 52.0144 31.7646 48.3439 31.79 44.65C31.79 26.36 41.79 14.85 54.15 14.85C66.51 14.85 76.46 26.36 76.46 44.65Z" fill="#FCB18E"/>
<path id="Vector_8" d="M89.1 88.05L64.1 81.52H44.1L19.1 88.05C15.5431 89.5865 12.4695 92.0589 10.2066 95.204C7.94372 98.3492 6.57631 102.049 6.25 105.91H102C101.669 102.044 100.294 98.34 98.0222 95.1944C95.7502 92.0487 92.6663 89.5794 89.1 88.05V88.05Z" fill="#FCB18E"/>
<path id="Vector_9" d="M89.1 88.05L64.1 81.52H44.1L19.1 88.05C15.5431 89.5865 12.4695 92.0589 10.2066 95.204C7.94372 98.3492 6.57631 102.049 6.25 105.91H102C101.669 102.044 100.294 98.34 98.0222 95.1944C95.7502 92.0487 92.6663 89.5794 89.1 88.05V88.05Z" fill="white"/>
<path class="hair" d="M37.77 23.6C37.77 23.6 45.27 34.74 64.13 36C64.13 36 62.55 35.29 60.69 30.43C64.9382 33.9271 69.6244 36.8551 74.63 39.14L76.42 42.77C76.42 42.77 76.42 40.92 78.12 41.25C78.12 41.25 79.55 26.71 73.55 19.57C75.2537 19.6808 76.8907 20.2739 78.27 21.28C78.27 21.28 75.55 15.57 66.27 12.42C66.27 12.42 68.56 10.56 72.7 11.85C72.7 11.85 67.22 9.28001 58.03 9.71001C58 9.74001 40 9.00001 37.77 23.6Z" fill="#26120B"/>
<path class="hair" d="M40.69 26.25L31.79 42.73C31.4253 42.2809 31.0346 41.8535 30.62 41.45C30.62 41.45 30.17 18.81 42.7 14.52L40.69 26.25Z" fill="#26120B"/>
<path id="Vector_10" d="M89.1 88.05L70.62 83.21L54.11 105.91L37.77 83.17L19.11 88.05C15.5512 89.585 12.4755 92.0569 10.2108 95.2021C7.94612 98.3473 6.57721 102.048 6.25 105.91H102C101.669 102.044 100.294 98.34 98.0222 95.1944C95.7502 92.0487 92.6663 89.5793 89.1 88.05V88.05Z" fill="#1A1A1A"/>
<path id="Vector_11" d="M51.91 94.54L47.31 105.91H60.39L55.9 94.54H51.91Z" fill="#C0000B"/>
<path id="Vector_12" d="M53.8 81.74L47.95 89.6L52.02 94.57L54.01 94.54L56.01 94.5L59.91 89.4L53.8 81.74Z" fill="#C2000B"/>
<g id="Vector_13" style="mix-blend-mode:multiply">
<path d="M57.72 88.57C56.97 90.05 55.57 91.73 53.72 91.32C53.2801 91.2203 52.8655 91.0307 52.5024 90.7631C52.1393 90.4955 51.8355 90.1556 51.6101 89.7649C51.3847 89.3742 51.2426 88.9411 51.1927 88.4928C51.1427 88.0445 51.1861 87.5907 51.32 87.16C51.76 85.32 52.94 83.8 53.6 82.06L48 89.6L52.07 94.6L56.07 94.53L59.97 89.43L58.32 87.36C58.1 87.75 57.92 88.17 57.72 88.57Z" fill="#CCCCCC"/>
</g>
<path id="Vector_14" d="M54.1 105.91L37.77 83.17L24.71 86.58L41.4 98.33L37.11 100.22L44.83 105.91H54.1Z" fill="#121212"/>
<path id="Vector_15" d="M54.1 105.94L70.44 83.2L83.5 86.61L66.81 98.36L71.1 100.25L63.38 105.94H54.1Z" fill="#121212"/>
<path id="Vector_16" d="M34.25 81.99L44.05 77.4L54.04 81.57L64.02 77.4L74.49 81.99L59.69 91.9L54.04 83.8L47.95 91.9L34.25 81.99Z" fill="#E0E0E0"/>
</g>
</g>
</g>
</g>
<defs>
<clipPath id="clip0_0_1">
<rect width="104.67" height="104.66" fill="white"/>
</clipPath>
</defs>
</svg>
