<svg width="105" height="105" viewBox="0 0 105 105" fill="none" xmlns="http://www.w3.org/2000/svg">
<g id="6-01 1" clip-path="url(#clip0_0_1)">
<g id="Group">
<g id="Capa 1">
<g id="Group_2">
<path class="hair" d="M27.8 48C27.51 48.43 26.61 84.82 33.01 92.27H69.2C69.2 92.27 79.09 64.34 72.36 48H27.59" fill="#985112"/>
<path id="Vector" d="M62.35 68.01H42.31V81.51H62.35V68.01Z" fill="#FCB18E"/>
<g id="Vector_2" style="mix-blend-mode:multiply">
<path d="M47.17 77.78C50.2191 79.0222 53.4686 79.6999 56.76 79.78C58.6362 79.7669 60.5073 79.5828 62.35 79.23V68H42.35V75C43.7924 76.1862 45.421 77.1255 47.17 77.78V77.78Z" fill="#E5E5E5"/>
</g>
<path id="Vector_3" d="M74 42.6C74.07 42.11 74.92 41.3 75.29 41.02C76.11 40.41 76.94 41.02 77.18 41.83C77.3531 42.5645 77.447 43.3155 77.46 44.07C77.6051 45.8523 77.2593 47.6403 76.46 49.24C75.9071 50.3101 75.0873 51.2194 74.08 51.88C73.9531 51.9569 73.8082 51.9992 73.6598 52.0027C73.5114 52.0063 73.3647 51.9709 73.2342 51.9001C73.1037 51.8293 72.9941 51.7256 72.9162 51.5992C72.8382 51.4729 72.7948 51.3283 72.79 51.18L74 42.6Z" fill="#FCB18E"/>
<path id="Vector_4" d="M73.85 43.68C73.9 43.32 74.51 42.75 74.77 42.55C75.36 42.11 75.95 42.55 76.12 43.13C76.2494 43.6538 76.3199 44.1905 76.33 44.73C76.4452 46.0023 76.2101 47.2818 75.65 48.43C75.2529 49.1971 74.6637 49.8483 73.94 50.32C73.8492 50.3737 73.746 50.4029 73.6406 50.4048C73.5351 50.4068 73.4309 50.3813 73.3382 50.3309C73.2455 50.2805 73.1675 50.207 73.1117 50.1174C73.056 50.0279 73.0244 49.9254 73.02 49.82L73.85 43.68Z" fill="#DB9A7C"/>
<path id="Vector_5" d="M30.13 42.6C30.06 42.11 29.22 41.3 28.85 41.02C28.03 40.41 27.2 41.02 26.96 41.83C26.7791 42.5633 26.6818 43.3148 26.67 44.07C26.5094 45.8477 26.838 47.6355 27.62 49.24C28.173 50.3101 28.9927 51.2194 30 51.88C30.127 51.9569 30.2718 51.9992 30.4202 52.0027C30.5686 52.0063 30.7154 51.9709 30.8458 51.9001C30.9763 51.8293 31.086 51.7256 31.1639 51.5992C31.2418 51.4729 31.2853 51.3283 31.29 51.18L30.13 42.6Z" fill="#FCB18E"/>
<path id="Vector_6" d="M30.3 43.68C30.25 43.32 29.65 42.75 29.38 42.55C28.79 42.11 28.2 42.55 28.03 43.13C27.9055 43.6547 27.8351 44.1909 27.82 44.73C27.7079 46.0032 27.9465 47.2828 28.51 48.43C28.9044 49.1959 29.49 49.847 30.21 50.32C30.3016 50.3731 30.4052 50.4019 30.5111 50.4036C30.6169 50.4053 30.7214 50.3799 30.8147 50.3298C30.9079 50.2796 30.9868 50.2065 31.0437 50.1172C31.1007 50.028 31.1338 49.9257 31.14 49.82L30.3 43.68Z" fill="#DB9A7C"/>
<path id="Vector_7" d="M74.68 44.22C74.68 49.87 73.68 55.6 71.04 60.49C68.6544 64.6388 65.3793 68.2077 61.45 70.94C58.4 73.16 55.13 75.75 51.28 75.43C47.28 75.1 44.13 71.68 41.19 69C36.9719 65.1889 33.7456 60.4078 31.79 55.07C30.5737 51.5832 29.9682 47.9127 30 44.22C30 25.93 40 14.42 52.35 14.42C64.7 14.42 74.68 25.93 74.68 44.22Z" fill="#FCB18E"/>
<path id="Vector_8" d="M82.82 87.62L61.06 81.09H43.6L21.84 87.62C21.84 87.62 11.76 91.91 10.64 105.48H94C92.91 91.91 82.82 87.62 82.82 87.62Z" fill="#FCB18E"/>
<path id="Vector_9" d="M76.35 85.68L70.79 84L52.33 102.45L33.82 84L29.47 85.31C29.47 85.31 31.1 91.89 29.98 105.46H75.18C74.06 91.91 76.35 85.68 76.35 85.68Z" fill="#3CB1A8"/>
<path class="hair" d="M31.3 33.39C31.3 33.39 36.59 36.07 50.35 36.79L53.35 27.02L54.07 36.79C57.8629 36.8941 61.6564 36.6059 65.39 35.93L66.68 30.48L68.26 35.64C68.26 35.64 72.12 35.36 73.26 32.96C73.26 32.96 70.99 14.96 54.37 13.43C54.36 13.43 35.53 13.71 31.3 33.39Z" fill="#FEA621"/>
<path class="hair" d="M40.17 16.22C39.66 15.96 42.29 12.64 42.44 12.49C45.44 9.49001 49.95 8.49001 54.04 8.72001C65 9.37001 73.44 16 77.29 26.3C78.6433 29.9535 79.5074 33.7699 79.86 37.65C81.1086 53.9862 81.1086 70.3938 79.86 86.73C79.3463 92.5469 79.2995 98.3956 79.72 104.22C79.72 104.22 70.72 106.36 71.12 89.09L72 64.44L73.27 42.76C73.27 42.76 73.86 32.63 69.85 30.76L40.17 16.22Z" fill="#FEA621"/>
<path class="hair" d="M46.59 13.23C46.59 13.23 27.7 13.88 28.85 41L30 42.58C30 42.58 36 26.47 45.78 22.89L46.59 13.23Z" fill="#FEA621"/>
<path class="hair" d="M36.81 83.13L29.47 85.33C25.41 72.9 27.62 49.24 27.62 49.24C27.62 49.24 29.32 52.33 30.87 52C31.5289 54.3749 32.3956 56.6871 33.46 58.91C33.45 65.53 33.69 75.46 36.81 83.13Z" fill="#FEA621"/>
</g>
</g>
</g>
</g>
<defs>
<clipPath id="clip0_0_1">
<rect width="104.66" height="104.66" fill="white"/>
</clipPath>
</defs>
</svg>
